<?xml version="1.0" encoding="utf-8"?>
<!-- Generator: Adobe Illustrator 26.0.0, SVG Export Plug-In . SVG Version: 6.00 Build 0)  -->
<svg version="1.1" id="Layer_1" xmlns="http://www.w3.org/2000/svg" xmlns:xlink="http://www.w3.org/1999/xlink" x="0px" y="0px"
	 viewBox="0 0 100 100" style="enable-background:new 0 0 100 100;" xml:space="preserve">
<style type="text/css">
	.st0{opacity:0.8;fill:url(#SVGID_1_);enable-background:new    ;}
	.st1{fill:#00494D;}
</style>
<linearGradient id="SVGID_1_" gradientUnits="userSpaceOnUse" x1="11.6113" y1="78.4798" x2="88.3887" y2="22.5202">
	<stop  offset="0" style="stop-color:#26C0AB"/>
	<stop  offset="0.1404" style="stop-color:#2BC1AD"/>
	<stop  offset="0.3015" style="stop-color:#39C4B2"/>
	<stop  offset="0.4728" style="stop-color:#50C9BB"/>
	<stop  offset="0.6512" style="stop-color:#70D1C7"/>
	<stop  offset="0.8332" style="stop-color:#99DAD6"/>
	<stop  offset="1" style="stop-color:#C5E4E7"/>
</linearGradient>
<path class="st0" d="M50,98L50,98C23.8,98,2.5,76.7,2.5,50.5v0C2.5,24.3,23.8,3,50,3h0c26.2,0,47.5,21.3,47.5,47.5v0
	C97.5,76.7,76.2,98,50,98z"/>
<path class="st1" d="M72,58.1c-0.4-2.4-1.3-4.5-3-6.3c-2.6-2.7-5.9-4.3-9.4-5.2c-1.6-0.4-3.3-0.7-5-1c-0.4-0.1-0.8,0-0.8-0.7
	c0-4.8,0-9.7,0-14.5c0-0.5,0.2-0.5,0.5-0.4c0.9,0.3,1.8,0.6,2.6,1c2.1,1.2,3.9,2.7,4.8,5c0.5,1.3,0.7,2.7,0.6,4.1
	c0,0.4,0,0.6,0.5,0.6c2.4,0,4.9,0,7.3,0c0.2,0,0.5-0.3,0.5-0.5c0-1.1,0-2.3-0.1-3.4c-0.8-5.3-3.8-9.2-8.2-12
	c-2.3-1.5-4.9-2.3-7.6-2.9c-0.7-0.1-0.8-0.4-0.8-1.1c0-1.8,0-3.5,0-5.3c0-0.6-0.2-0.7-0.7-0.7c-2.1,0-4.3,0-6.4,0
	c-0.6,0-0.8,0.1-0.7,0.7c0,1.8,0,3.6,0,5.4c0,0.5-0.1,0.6-0.6,0.7c-4,0.5-7.8,1.7-11,4.3c-2.2,1.8-3.7,4-4.5,6.7
	c-0.7,2.3-0.7,4.8-0.4,7.2c0.5,4.5,3,7.6,6.9,9.6c2.7,1.5,5.7,2.3,8.7,2.7c0.6,0.1,0.9,0.3,0.9,1c-0.1,2.6,0,5.3,0,7.9
	c0,2.7,0,5.5,0,8.2c0,0.5-0.1,0.7-0.6,0.5c-0.5-0.2-1-0.3-1.5-0.5c-3.8-1.4-6.4-3.9-7.3-7.8c-0.4-1.6-0.4-3.2-0.5-4.9
	c0-0.4-0.1-0.5-0.5-0.5c-2.4,0-4.8,0-7.2,0c-0.2,0-0.5,0.3-0.5,0.4c0.1,1.9,0,3.8,0.3,5.6c0.9,4.8,3.4,8.7,7.3,11.6
	c3,2.2,6.3,3.4,9.9,4c0.5,0.1,0.7,0.3,0.7,0.8c0,1.8,0,3.6,0,5.5c0,0.5,0.1,0.7,0.7,0.7c2.2,0,4.4,0,6.5,0c0.5,0,0.7-0.2,0.7-0.7
	c0-1.7,0-3.5,0-5.2c0-0.6,0.1-0.7,0.7-0.8c3.4-0.3,6.7-1,9.7-2.8c3.2-1.9,5.7-4.3,7.1-7.8C72.4,64.6,72.5,61.4,72,58.1z M45.9,37.1
	c0,2.3,0,4.6,0,6.8c0,0.6-0.1,0.7-0.7,0.5c-1.6-0.4-3.2-0.8-4.6-1.7c-3.7-2.2-4.1-8.9-0.1-11.2c1.5-0.9,3-1.6,4.7-1.9
	c0.5-0.1,0.6,0,0.6,0.5C45.9,32.5,45.9,34.8,45.9,37.1z M61.9,67c-1.1,1.3-2.6,2.1-4.2,2.6c-1.1,0.4-2.2,0.6-3.3,0.8
	c-0.5,0.1-0.7-0.1-0.7-0.6c0-2.7,0-5.3,0-8c0-2.6,0-5.2,0-7.8c0-0.6,0.1-0.8,0.7-0.6c1.9,0.6,3.8,1,5.6,1.8c2.5,1.1,3.6,3.2,3.7,5.9
	C63.8,63.4,63.3,65.4,61.9,67z"/>
</svg>
